<svg
  xmlns="http://www.w3.org/2000/svg"
  xmlns:xlink="http://www.w3.org/1999/xlink"
  version="1.1"
  viewBox="0 0 1277.915 283.413"
  fill="#edf2f4"
  stroke="#edf2f4">
  <g id="__id695_sofct0xdg">
    <path
      d="M68.157,283.413c-20.409,0-40.574-9.164-53.942-26.549c-22.995-29.75-17.52-72.489,12.281-95.484   L217.035,14.245c24.478-18.969,58.76-18.969,83.237,0L449.15,129.17L597.759,14.245c24.537-18.969,58.76-18.969,83.287,0   L829.688,129.17L978.205,14.245c24.536-18.969,58.793-19.036,83.321,0.05l189.941,147.084   c29.801,23.113,35.217,65.852,12.162,95.602c-23.062,29.666-65.835,35.158-95.576,12.164l-148.188-114.942L871.29,269.146   c-24.536,18.951-58.725,18.951-83.295,0L639.453,154.203L490.811,269.146c-24.537,18.951-58.819,18.9-83.229,0.05L258.637,154.153   L109.699,269.195C97.385,278.765,82.636,283.413,68.157,283.413"></path>
  </g>
</svg>
